<svg width="150" height="150" viewBox="0 0 150 150" fill="none" xmlns="http://www.w3.org/2000/svg">
<g clip-path="url(#clip0_2_723)">
<path d="M19.1055 32.8189L19.1055 32.8192C18.8807 34.0647 18.7955 35.3331 18.7082 36.6342C18.6904 36.8985 18.6726 37.1641 18.6535 37.4312C18.5414 38.9975 18.3854 40.5992 17.9261 42.1584L17.9259 42.1593C17.3424 44.126 16.3174 45.8721 15.1821 47.52C14.6633 48.273 14.1169 49.0118 13.5769 49.7419C13.5261 49.8106 13.4754 49.8793 13.4247 49.9478C12.8334 50.7478 12.2528 51.5391 11.7141 52.3451L11.7113 52.3494C5.47666 61.472 3.99968 73.0224 3.68188 84.192C3.44209 93.2263 4.2934 103.085 10.7989 108.96C12.5535 110.539 14.5848 111.713 16.7005 112.844C17.0758 113.044 17.4542 113.244 17.8341 113.444C19.5813 114.365 21.3606 115.303 23.0077 116.443L23.0173 116.449L23.0266 116.456C25.9223 118.666 28.6594 121.077 31.2176 123.67C49.6818 140.742 77.794 146.564 101.539 138.339L101.55 138.336L101.56 138.333C104.315 137.514 106.875 136.144 109.084 134.306C110.238 133.256 111.178 131.998 112.1 130.668C112.301 130.377 112.502 130.082 112.704 129.785C113.421 128.734 114.154 127.658 114.977 126.667L114.977 126.666C117.481 123.662 120.715 121.497 123.976 119.45C124.377 119.198 124.778 118.949 125.178 118.699C128.055 116.908 130.891 115.142 133.312 112.888C137.089 109.36 139.706 104.769 140.818 99.7208C141.519 96.4993 141.601 93.1933 141.543 89.8367C141.526 88.8937 141.498 87.9442 141.471 86.9916C141.4 84.5722 141.329 82.1326 141.44 79.7264L141.441 79.7217C141.598 76.8952 142.02 74.0448 142.491 71.2116C142.613 70.4828 142.737 69.7557 142.861 69.0305C143.221 66.9283 143.578 64.8408 143.849 62.7652C144.578 57.186 144.668 51.8 142.521 46.7726C140.356 41.774 136.22 37.8424 132.094 34.0302L132.094 34.0301C121.801 24.5182 110.87 14.8366 97.3369 12.5363C94.3506 12.0304 91.3099 11.9044 88.2325 11.7769C88.1358 11.7729 88.0391 11.7689 87.9423 11.7649C84.7776 11.6334 81.5763 11.4876 78.4279 10.8983L19.1055 32.8189ZM19.1055 32.8189C20.3549 25.8739 25.8327 20.4028 31.8863 16.4149M19.1055 32.8189L31.8863 16.4149M31.8863 16.4149C36.2703 13.5544 41.7619 10.6577 47.4754 8.75809C53.1953 6.85634 59.0943 5.96829 64.3152 7.07325C66.5246 7.54154 68.6934 8.21004 70.8893 8.88689C71.0281 8.92969 71.1671 8.97253 71.3062 9.01536C73.6365 9.73273 75.9992 10.4449 78.4276 10.8983L31.8863 16.4149Z" fill="#F6B658" stroke="black"/>
<path d="M141.87 79.7186C142.336 71.4202 145.104 62.8564 144.71 54.7818C144.612 55.1373 144.511 55.5032 144.422 55.8273C142.47 61.7585 139.778 67.5191 138.968 73.72C137.627 84.0839 141.38 95.9316 135.102 104.292C130.558 110.363 122.293 112.178 116.407 116.957C113.962 118.926 111.77 121.528 108.654 122.097C105.538 122.666 102.179 121.098 99.333 122.361C95.8145 123.899 95.0955 128.708 92.1592 131.194C90.6157 132.365 88.7922 133.112 86.8704 133.358C81.0576 134.42 75.0595 133.699 69.6642 131.289C62.9305 128.25 57.4076 122.698 50.2931 120.713C44.6158 119.147 37.7072 119.637 33.8791 115.161C32.5783 113.677 31.8486 111.754 30.6365 110.193C26.4933 104.82 18.294 104.932 12.497 101.352C7.68749 98.3938 4.80006 92.9955 3.63384 87.4756C3.37375 86.1207 3.23359 84.7454 3.21498 83.3658C3.19803 83.6312 3.18865 83.9099 3.18215 84.1781C2.94257 93.2031 3.77196 103.288 10.4645 109.331C14.0698 112.576 18.774 114.121 22.7233 116.854C25.6035 119.052 28.3257 121.45 30.8699 124.029C49.47 141.233 77.7806 147.097 101.703 138.812C104.526 137.973 107.15 136.568 109.413 134.683C111.815 132.499 113.288 129.485 115.362 126.986C120.256 121.113 128.051 118.47 133.653 113.253C137.505 109.656 140.173 104.974 141.306 99.8269C142.66 93.2471 141.494 86.4221 141.87 79.7186Z" fill="#E3A45A"/>
<path d="M3.13306 88.2713C3.68809 89.794 4.39681 91.2562 5.24824 92.6353C4.52754 90.9721 3.97618 89.2406 3.6025 87.467C3.34241 86.112 3.20225 84.7367 3.18364 83.3572C3.16669 83.6225 3.15731 83.9012 3.15081 84.1695C3.11545 85.5211 3.15039 86.9034 3.13306 88.2713Z" fill="#C68A4F"/>
<path d="M141.233 99.8068C142.66 93.2472 141.558 86.3948 141.867 79.7292C142.334 71.4308 145.101 62.867 144.707 54.7924C144.609 55.1479 144.508 55.5138 144.419 55.8379C143.862 57.5296 143.237 59.2248 142.615 60.9096C141.861 66.1698 140.655 71.519 140.368 76.7616C140.007 83.4128 141.138 90.2843 139.724 96.8363C138.586 101.982 135.918 106.662 132.07 110.263C126.471 115.469 118.655 118.106 113.789 123.998C111.705 126.495 110.235 129.498 107.84 131.695C105.569 133.574 102.944 134.977 100.12 135.821C76.1893 144.138 47.8757 138.285 29.2872 121.039C26.7458 118.454 24.0244 116.053 21.1435 113.853C17.1913 111.131 12.4482 109.563 8.88179 106.341C7.66739 105.235 6.60838 103.97 5.73366 102.58C6.79949 105.149 8.41416 107.453 10.4645 109.331C14.0698 112.576 18.774 114.122 22.7233 116.854C25.6035 119.052 28.3257 121.45 30.8699 124.029C49.47 141.233 77.7807 147.097 101.703 138.812C104.526 137.973 107.15 136.568 109.413 134.683C111.815 132.499 113.288 129.485 115.362 126.986C120.256 121.113 128.051 118.47 133.653 113.254C137.481 109.641 140.124 104.952 141.233 99.8068V99.8068Z" fill="#C68A4F"/>
<path d="M125.4 44.189C125.207 44.8684 124.868 45.4976 124.408 46.033C123.947 46.5685 123.376 46.9974 122.733 47.2899C121.49 47.9598 120.12 48.3581 118.866 49.0698C118.542 49.2299 118.275 49.4862 118.101 49.8039C117.985 50.169 117.983 50.5609 118.095 50.9273C118.499 52.3776 118.714 53.8739 118.735 55.3792C118.736 56.1291 118.554 56.868 118.202 57.5304C117.851 58.1929 117.341 58.7585 116.719 59.1774C116.095 59.4834 115.407 59.6351 114.712 59.6197C114.018 59.6042 113.337 59.4221 112.727 59.0887C111.513 58.4218 110.412 57.5675 109.465 56.5573C110.583 58.0541 111.979 59.3217 113.577 60.2907C114.376 60.7733 115.27 61.0782 116.198 61.1846C117.126 61.2911 118.065 61.1966 118.953 60.9077C119.836 60.5954 120.591 60.0013 121.102 59.2171C121.614 58.4329 121.852 57.5022 121.782 56.5687C121.667 56.1159 121.61 55.6503 121.613 55.1831C121.705 54.8006 121.899 54.4502 122.174 54.1695C122.45 53.8888 122.797 53.6884 123.178 53.5896C123.939 53.4093 124.72 53.3187 125.502 53.3196C127.11 53.2908 128.653 52.6814 129.846 51.6039C131.605 49.8388 131.583 46.8175 130.445 44.5796C129.148 42.4194 127.392 40.5712 125.3 39.166C122.358 36.9029 119.031 34.4436 115.231 34.0253C118.29 36.3544 126.359 39.1206 125.4 44.189Z" fill="#E3A45A"/>
<path d="M23.564 80.2829C23.9374 80.0743 24.3552 79.958 24.7827 79.944C25.2865 80.0224 25.7565 80.246 26.1354 80.5872L29.8734 83.3512C30.4667 83.7142 30.9463 84.2363 31.2578 84.8582C31.4712 85.3897 31.4294 86.0307 31.681 86.5052C32.0118 87.099 32.5576 87.5435 33.2061 87.7473C34.4768 88.2091 35.8677 88.2197 37.1453 87.7772C38.4229 87.3348 39.5093 86.4662 40.2222 85.3174C40.3554 85.138 40.4477 84.9315 40.4926 84.7125C40.5374 84.4936 40.5338 84.2675 40.4818 84.0501C40.3326 83.7444 40.1193 83.4744 39.8563 83.2587C39.2597 82.587 38.9402 81.7139 38.9625 80.8157C38.9847 79.9176 39.347 79.0613 39.9761 78.4199C39.767 78.7045 39.6435 79.0427 39.6201 79.395C39.5966 79.7473 39.6742 80.099 39.8437 80.4087C40.1904 81.0168 40.5932 81.5913 41.0468 82.1245C42.0561 83.5441 42.4938 85.2917 42.2729 87.0195C42.205 87.8418 41.8681 88.6188 41.3142 89.2303C40.7917 89.6641 40.2054 90.0147 39.576 90.2697C38.062 91.0552 36.7362 92.1597 35.6901 93.5069C35.3281 94.0783 34.8554 94.5715 34.2998 94.9573C34.0162 95.1427 33.6738 95.2161 33.3391 95.1632C33.0043 95.1104 32.7012 94.9351 32.4885 94.6714C31.9982 93.8385 32.5916 92.2583 31.6369 92.1299C31.267 92.0841 30.9523 92.3686 30.6094 92.5103C29.336 93.0478 28.0885 91.5335 27.8852 90.1498C27.6819 88.766 28.0933 87.3156 27.5291 86.0573C27.1506 85.2846 26.5379 84.651 25.7784 84.2466C24.5102 83.5231 23.029 83.2657 21.5911 83.519C20.6617 83.6975 19.7861 84.0884 19.0327 84.6613C18.2794 85.2342 17.6687 85.9735 17.2484 86.8214C19.1099 82.9695 19.7708 82.0829 23.564 80.2829Z" fill="#E3A45A"/>
<path d="M92.7343 110.921C93.6484 110.625 94.4871 110.134 95.1918 109.481C95.8966 108.829 96.4505 108.03 96.8149 107.141C96.9424 106.641 97.2195 106.191 97.6092 105.853C97.8493 105.72 98.1134 105.636 98.3862 105.606L108.055 103.919C105.328 105.158 101.818 104.707 99.6318 106.759C99.0877 107.319 98.6163 107.945 98.2289 108.623L96.115 111.921C95.9081 112.322 95.5973 112.66 95.2151 112.899C94.8052 113.058 94.3645 113.121 93.9265 113.084C91.6521 113.086 89.405 113.581 87.3398 114.534C85.2746 115.486 83.4401 116.875 81.9623 118.604C83.0274 116.783 84.3268 113.867 86.0448 112.575C87.7628 111.282 90.6157 111.585 92.7343 110.921Z" fill="#E3A45A"/>
<path d="M79.6469 52.5276C77.6618 53.7689 75.0507 54.0162 73.4258 55.7056C72.3234 57.1059 71.6371 58.7881 71.4452 60.5599C71.0706 62.448 70.6884 64.3228 70.3166 66.2004C71.3055 63.5404 72.3043 60.8719 73.3129 58.1948C73.4268 57.7882 73.6341 57.4139 73.9182 57.1016C74.4631 56.6833 75.1187 56.4339 75.8039 56.3842C78.0257 55.7927 80.1056 54.7593 81.919 53.3457C82.8067 52.8429 83.5638 52.1383 84.1291 51.2889C84.4748 50.5463 84.6941 49.7512 84.7781 48.9364C85.3828 46.0095 86.4474 43.1968 87.9323 40.603C85.923 42.299 84.8536 42.9941 84.0052 45.5391C83.0728 48.1847 82.2172 50.919 79.6469 52.5276Z" fill="#E3A45A"/>
<path d="M24.9575 31.1052C23.994 35.2499 23.8418 39.7984 21.385 43.2386C19.9742 45.2122 17.7695 47.3717 18.7342 49.5844C19.0488 50.1851 19.5331 50.6802 20.1268 51.008C20.7205 51.3358 21.3974 51.482 22.0735 51.4282C23.432 51.2998 24.7317 50.8118 25.8389 50.0143C28.9929 47.9598 31.5022 45.0561 33.078 41.6377C34.3504 38.8609 34.972 35.792 36.5379 33.1749C39.295 28.5236 44.4878 25.9733 49.4965 23.9685C51.5749 23.2636 53.5351 22.2492 55.3109 20.9596C57.7053 19.0098 59.0494 16.0953 60.3334 13.2766C60.519 12.9532 60.5911 12.5771 60.5382 12.208C60.4186 11.9518 60.2242 11.7378 59.9806 11.5943C59.737 11.4508 59.4556 11.3844 59.1735 11.404C56.8434 11.2449 54.8305 12.8723 52.8151 14.0603C46.1047 17.9921 38.1628 18.2314 31.7303 22.7462C31.5587 22.5526 31.7328 22.5332 31.5108 22.3594C27.7622 23.508 25.7648 27.6487 24.9575 31.1052Z" fill="#FEC554"/>
<path d="M77.9386 19.405C77.6418 21.3371 77.3422 23.2797 77.0559 25.2147C76.825 26.1537 76.8447 27.1368 77.1132 28.0658C77.8428 29.9886 80.425 30.4984 82.3921 29.8935C84.3592 29.2885 85.9842 27.9254 87.8644 27.1052C90.2377 26.2315 92.7459 25.781 95.2749 25.7742C97.4075 25.5763 99.5547 25.5957 101.683 25.8321C105.519 26.4065 109.262 28.418 113.062 27.6548C113.46 27.6037 113.838 27.4526 114.162 27.2157C115.131 26.4366 114.811 24.8632 113.959 23.8742C112.459 22.0092 110 21.2181 107.629 20.8791C105.242 20.7191 102.872 20.3589 100.545 19.8024C98.2293 19.0622 96.2121 17.6056 94.0168 16.5499C89.0876 14.1886 79.0658 11.9751 77.9386 19.405Z" fill="#FEC554"/>
<path d="M16.8798 57.815C15.5467 58.7862 14.4072 59.9982 13.5199 61.3886C10.7727 65.342 8.86761 69.818 7.92301 74.5387C7.57869 75.8306 7.56391 77.1882 7.88002 78.4873C8.39267 80.1364 9.84597 81.5162 9.81997 83.2417C9.81707 83.9047 9.59425 84.6309 9.92737 85.2178C10.4573 86.1516 12.0185 85.7947 12.5928 84.8956C13.0429 83.9089 13.193 82.8118 13.0245 81.7405C12.9627 79.2726 13.3695 76.8154 14.2234 74.4991C14.3994 73.7973 14.7312 73.1442 15.1943 72.5882C15.6574 72.0323 16.2398 71.5878 16.8983 71.2879C18.3008 70.8535 19.7617 71.5941 21.0581 72.278C23.1781 73.4029 25.7397 74.4359 27.8813 73.3616C29.4103 72.5908 30.2684 70.9485 31.4099 69.6658C33.3655 67.4712 36.3057 66.2346 37.9671 63.8014C39.6285 61.3682 39.7177 58.2312 39.478 55.3072C39.2675 52.8076 37.7594 49.995 35.0878 51.767C33.2292 52.9982 32.4724 55.456 30.201 56.3482C25.8658 58.0326 21.2673 54.8399 16.8798 57.815Z" fill="#FEC554"/>
<path d="M40.2223 21.6448C39.949 22.2868 39.8205 22.9812 39.8459 23.6786C39.8713 24.3759 40.05 25.0591 40.3693 25.6796C40.8853 26.4136 41.5593 27.0224 42.3418 27.4614C43.6353 28.3038 44.9738 29.0749 46.3513 29.7714C48.0705 30.7388 49.9565 31.3736 51.9107 31.6427C53.002 31.7731 54.1085 31.6651 55.1539 31.3261C56.1993 30.987 57.1586 30.4251 57.9656 29.679C58.7493 28.9097 59.2726 27.9144 59.462 26.8327C59.6515 25.751 59.4977 24.6371 59.0221 23.6472C58.2885 22.5298 57.313 21.5916 56.1678 20.9021C53.5183 19.046 50.4924 15.4546 47.0766 16.0087C45.5434 16.273 44.1054 16.9316 42.9037 17.9197C41.7019 18.9079 40.7779 20.1916 40.2223 21.6448V21.6448Z" fill="#673815"/>
<path d="M30.9928 94.2938C30.0456 94.1295 29.0738 94.177 28.1472 94.433C27.2206 94.689 26.3622 95.1471 25.6337 95.7744C24.712 96.745 24.0818 97.9553 23.8151 99.2669C23.5706 100.18 23.5143 101.133 23.6499 102.068C24.1665 104.967 27.0656 106.734 28.6079 109.219C29.1826 110.154 29.6501 111.273 30.6524 111.718C31.3753 111.952 32.1497 111.974 32.8849 111.783C35.1015 111.415 37.5596 110.743 38.6726 108.789C39.3462 107.259 39.5093 105.552 39.1378 103.922C38.5084 98.9438 36.3424 95.0496 30.9928 94.2938Z" fill="#673815"/>
<path d="M56.9585 125.081C57.5306 123.62 58.4126 122.302 59.5437 121.215C60.6748 120.129 62.0281 119.3 63.5103 118.787C66.4807 117.781 69.6725 117.622 72.7285 118.326C75.4199 118.889 78.3269 120.22 79.2134 122.838C79.4029 123.535 79.4395 124.265 79.3208 124.977C79.202 125.69 78.9306 126.368 78.5253 126.965C78.12 127.563 77.5902 128.066 76.9724 128.44C76.3545 128.814 75.6631 129.05 74.9456 129.132C73.4252 129.219 71.7195 128.591 70.3855 129.348C69.0515 130.105 68.7375 132.1 67.9341 133.543C67.2457 134.671 66.1845 135.522 64.9342 135.95C63.684 136.378 62.3236 136.355 61.0886 135.885C57.86 134.578 55.8054 128.363 56.9585 125.081Z" fill="#673815"/>
<path d="M97.7538 114.88C97.2641 115.538 97.0295 116.352 97.0933 117.17C97.1572 117.988 97.5153 118.755 98.1013 119.33C99.2928 120.435 101.146 120.53 102.484 121.428C103.823 122.326 104.514 123.9 105.442 125.225C106.37 126.55 107.904 127.761 109.459 127.346C110.075 127.098 110.619 126.697 111.037 126.18C111.455 125.664 111.734 125.049 111.848 124.394C112.087 123.6 112.157 122.764 112.053 121.941C111.798 120.737 111.211 119.628 110.359 118.74C108.335 116.37 100.571 111.314 97.7538 114.88Z" fill="#673815"/>
<path d="M118.56 82.3567C117.042 83.8878 115.821 85.6872 114.959 87.6637C113.824 89.736 112.437 91.8286 110.296 92.8582C109.456 93.1227 108.688 93.5768 108.051 94.1853C107.749 94.6052 107.569 95.1011 107.532 95.6173C107.249 98.1945 109.296 100.604 111.755 101.395C114.286 102.03 116.961 101.711 119.271 100.499C122.266 99.0882 124.819 96.8862 126.654 94.1305C127.802 92.5585 128.471 90.6874 128.579 88.7434C128.654 83.9825 122.892 78.6461 118.56 82.3567Z" fill="#673815"/>
<path d="M113.758 26.4294C112.979 26.1585 112.14 26.1075 111.334 26.282C110.527 26.4565 109.785 26.8497 109.187 27.4186C108.212 28.5449 108.115 30.1608 107.563 31.55C106.77 33.4464 105.255 34.8622 104.236 36.5953C103.887 37.0626 103.673 37.6177 103.62 38.1989C103.567 38.7802 103.676 39.3647 103.936 39.8877C104.724 41.1067 106.595 40.8915 108.1 41.1042C110.765 41.4792 112.918 43.6259 115.584 44.0352C116.703 44.205 117.847 44.0552 118.885 43.6032C119.923 43.1511 120.812 42.4151 121.45 41.48C122.087 40.5448 122.448 39.4486 122.49 38.3174C122.532 37.1863 122.254 36.0663 121.687 35.0864C121.126 34.144 120.329 33.3616 119.849 32.329C118.368 29.5802 117.04 27.3798 113.758 26.4294Z" fill="#673815"/>
<path d="M61.5758 99.4331C64.2542 98.6201 67.0817 98.4232 69.8469 98.8571C71.5427 98.9997 73.2118 99.3693 74.8093 99.9561C76.1661 100.499 77.4228 101.264 78.5278 102.22C78.7835 102.503 79.1358 102.68 79.5157 102.717C79.6793 102.691 79.8348 102.628 79.9703 102.533C80.1058 102.438 80.2176 102.313 80.2973 102.168C81.057 101.005 80.6421 99.45 80.0111 98.2296C79.5038 97.1662 78.7416 96.2448 77.7921 95.5472C75.4043 93.9658 72.2654 94.8213 69.4132 94.9233C67.2745 95.0083 65.1315 94.6196 62.9924 94.8283C59.8496 95.0864 56.6476 97.0271 55.6904 100.048C55.5295 100.795 55.3262 101.531 55.0817 102.254C54.7249 102.846 54.4344 103.475 54.2153 104.131C54.1708 104.291 54.1596 104.458 54.1824 104.623C54.2052 104.787 54.2615 104.945 54.3479 105.087C54.4342 105.229 54.5487 105.352 54.6844 105.448C54.82 105.544 54.9739 105.611 55.1365 105.645C55.6661 104.188 56.5215 102.871 57.6374 101.794C58.7534 100.718 60.1004 99.91 61.5758 99.4331Z" fill="#FEC554"/>
<path d="M106.776 91.752C106.278 91.9929 105.856 92.3667 105.557 92.8321C105.258 93.2975 105.093 93.8365 105.081 94.3896C105.17 95.3707 105.925 96.1415 106.386 97C106.847 97.8584 106.835 99.2054 105.919 99.549C105.606 99.6552 105.265 99.6488 104.956 99.5309C104.016 99.1119 103.279 98.3384 102.906 97.3788C102.205 96.0616 101.838 94.5927 101.836 93.1007C101.84 92.3576 101.997 91.6234 102.297 90.9436C102.597 90.2637 103.033 89.6527 103.579 89.1485C104.589 88.302 105.972 87.896 106.955 86.9857C107.639 86.2772 108.208 85.4662 108.642 84.582C109.078 83.6973 109.748 82.9484 110.578 82.416C110.998 82.1578 111.492 82.046 111.983 82.0978C112.473 82.1497 112.933 82.3624 113.289 82.7026C114.496 84.1607 113.066 87.5915 112.163 88.9064C110.9 90.6283 108.492 90.7515 106.776 91.752Z" fill="#FEC554"/>
<path d="M78.9788 66.5312C79.7761 65.9775 80.6988 65.6314 81.6635 65.5243C82.6282 65.4171 83.6045 65.5523 84.5037 65.9177C85.2904 66.2472 86.0043 66.7592 86.8158 67.0393C87.2119 67.2072 87.6461 67.2648 88.0723 67.2061C88.4984 67.1474 88.9008 66.9746 89.2368 66.7059C90.1003 65.819 89.7269 64.3995 89.0307 63.3749C88.2054 62.1058 87.0336 61.0999 85.6541 60.4764C84.2746 59.8528 82.7453 59.6379 81.2474 59.8569C79.7495 60.076 78.3457 60.7199 77.2026 61.7123C76.0594 62.7047 75.2247 64.004 74.7974 65.4563C74.3099 67.2233 74.3708 69.1641 73.5015 70.7245C73.1557 71.2428 72.8925 71.8116 72.7212 72.4107C72.7083 72.746 72.7734 73.0798 72.9113 73.3857C73.0493 73.6916 73.2563 73.9614 73.5161 74.1737C73.776 74.3861 74.0816 74.5353 74.4088 74.6096C74.7361 74.6838 75.0761 74.6811 75.4021 74.6017C77.2066 73.9744 76.8202 72.4389 76.6767 71.0829C76.65 70.1923 76.8466 69.3092 77.2487 68.5142C77.6508 67.7191 78.2456 67.0374 78.9788 66.5312Z" fill="#FEC554"/>
<path opacity="0.43" d="M100.948 115.007C100.589 115.054 100.243 115.177 99.9349 115.368C99.6264 115.558 99.3617 115.811 99.1581 116.111C99.0027 116.308 98.9068 116.546 98.8817 116.796C98.8565 117.046 98.9031 117.299 99.016 117.523C99.182 117.707 99.3972 117.84 99.6361 117.906C99.875 117.972 100.128 117.968 100.365 117.895C100.841 117.801 101.281 117.552 101.758 117.413C103.409 116.935 105.089 117.86 106.7 118.462C106.781 118.507 106.87 118.533 106.962 118.539C107.054 118.545 107.146 118.53 107.231 118.496C107.308 118.438 107.364 118.356 107.389 118.264C107.415 118.171 107.409 118.072 107.372 117.983C107.299 117.807 107.183 117.652 107.036 117.531C105.732 116.304 102.869 114.772 100.948 115.007Z" fill="white"/>
<path opacity="0.43" d="M48.4483 19.1057C47.8049 19.0231 47.1552 19.0021 46.5079 19.043C45.3176 19.1996 44.213 19.7467 43.3671 20.5986C42.5212 21.4506 41.9819 22.5591 41.8338 23.7504C41.7866 23.9549 41.7914 24.168 41.8476 24.3702C41.9038 24.5724 42.0097 24.7573 42.1557 24.9081C42.3404 25.0194 42.5541 25.0732 42.7695 25.0624C42.9849 25.0517 43.1922 24.977 43.3649 24.8479C44.5317 24.0447 44.8043 22.2409 46.1343 21.8652C46.4927 21.7997 46.8613 21.816 47.2125 21.9129C47.5637 22.0098 47.8885 22.1848 48.1627 22.4248C48.7446 22.8442 49.2442 23.3983 49.8586 23.7816C50.2164 24.0378 50.6537 24.1585 51.0923 24.1219C51.4821 24.0209 51.8218 23.7817 52.0481 23.4488C52.2745 23.1159 52.3722 22.712 52.3229 22.3124C52.1376 20.2923 50.1962 19.2954 48.4483 19.1057Z" fill="white"/>
<path opacity="0.43" d="M28.2808 95.886C27.7206 96.1206 27.2169 96.4719 26.8032 96.9166C26.3896 97.3612 26.0754 97.8889 25.8817 98.4645C25.768 98.774 25.7119 99.1017 25.7162 99.4314C25.7648 100.682 26.9751 101.556 27.455 102.713C27.6497 103.149 27.7272 103.643 27.9485 104.064C28.0469 104.285 28.2111 104.47 28.4187 104.593C28.6263 104.717 28.8671 104.774 29.108 104.755C29.3367 104.684 29.5353 104.539 29.6729 104.343C29.8104 104.147 29.8792 103.91 29.8684 103.671C29.8304 103.193 29.6851 102.73 29.4434 102.316L28.7739 100.95C28.5161 100.525 28.3669 100.044 28.3395 99.5476C28.3651 99.2987 28.4489 99.0594 28.5841 98.849C28.7194 98.6385 28.9022 98.4629 29.1179 98.3362C29.3336 98.2095 29.576 98.1353 29.8257 98.1196C30.0753 98.104 30.3252 98.1473 30.555 98.2461C31.54 98.7541 31.8165 100.158 32.8602 100.412C33.2397 100.472 33.6275 100.383 33.9433 100.164C34.2592 99.9454 34.4789 99.6137 34.5569 99.2376C34.6183 98.8573 34.5822 98.4677 34.452 98.1051C34.3218 97.7425 34.1017 97.4189 33.8125 97.1645C33.0677 96.5111 32.1728 96.0524 31.2075 95.8293C30.2422 95.6062 29.2367 95.6256 28.2808 95.886V95.886Z" fill="white"/>
<path opacity="0.43" d="M61.8331 121.441C60.8682 121.878 60.011 122.521 59.3219 123.325C58.9259 123.83 58.6389 124.413 58.4789 125.035C58.319 125.657 58.2895 126.305 58.3923 126.939C58.4577 127.468 58.6814 127.965 59.0341 128.365C59.211 128.56 59.4364 128.704 59.6874 128.783C59.9384 128.862 60.2059 128.873 60.4625 128.815C61.3718 128.537 61.6044 127.409 61.8867 126.508C62.3294 125.222 63.1741 124.113 64.2959 123.345C65.4177 122.576 66.757 122.189 68.1158 122.241C69.7081 122.496 71.2727 122.901 72.7887 123.451C73.5101 123.65 74.4327 123.691 74.8891 123.097C75.0597 122.797 75.12 122.447 75.0595 122.108C74.999 121.768 74.8215 121.461 74.5579 121.239C74.0082 120.816 73.3638 120.534 72.6806 120.417C70.8927 119.924 69.2137 119.281 67.3727 119.673C65.4458 119.972 63.577 120.569 61.8331 121.441V121.441Z" fill="white"/>
<path opacity="0.43" d="M122.628 83.0287C121.569 83.1347 120.57 83.5665 119.767 84.2646C119.311 84.6172 118.927 85.0536 118.636 85.5503C118.311 86.264 118.067 87.0118 117.908 87.7798C117.469 89.2348 116.604 90.5247 115.424 91.4825C114.86 91.9346 114.143 92.5356 114.369 93.2278C114.465 93.4552 114.635 93.643 114.853 93.7602C115.07 93.8774 115.321 93.917 115.563 93.8725C116.04 93.7667 116.485 93.5504 116.863 93.2408C117.797 92.6744 118.598 91.9129 119.211 91.0084C119.609 90.3418 119.833 89.571 120.249 88.9206C120.435 88.5755 120.719 88.2923 121.064 88.1058C121.409 87.9192 121.801 87.8374 122.192 87.8704C123.185 88.0655 123.684 89.3169 124.68 89.5805C125.676 89.844 126.86 88.6518 126.843 87.4883C126.846 85.4412 124.765 82.9095 122.628 83.0287Z" fill="white"/>
<path opacity="0.43" d="M110.038 29.7573C109.955 30.0058 109.964 30.2762 110.065 30.5184C110.14 30.6516 110.249 30.763 110.38 30.8418C110.638 30.999 110.941 31.0662 111.241 31.033C111.542 30.9998 111.822 30.868 112.04 30.6583C112.14 30.5303 112.255 30.4147 112.382 30.314C112.513 30.2369 112.66 30.1919 112.811 30.1827C112.962 30.1736 113.113 30.2005 113.252 30.2614C113.611 30.3889 113.925 30.6197 114.153 30.9249C114.381 31.2301 114.514 31.596 114.534 31.9765C114.527 32.315 114.498 32.6528 114.446 32.9875C114.4 33.4107 114.471 33.8385 114.65 34.2248C114.828 34.6112 115.109 34.9415 115.462 35.1803C115.726 35.3277 116.024 35.4023 116.327 35.3962C116.629 35.3901 116.924 35.3036 117.182 35.1456C117.44 34.9876 117.651 34.7638 117.794 34.4971C117.936 34.2305 118.005 33.9307 117.994 33.6286C117.966 32.8332 117.405 32.1723 117.015 31.4682C116.687 30.7338 116.322 30.0171 115.919 29.3208C114.606 27.4734 110.765 27.1225 110.038 29.7573Z" fill="white"/>
<path d="M130.321 92.296C130.106 93.2811 129.692 94.2121 129.105 95.0321C127.109 97.6993 122.956 98.4776 121.784 101.586C122.881 101.068 123.949 100.491 124.983 99.8582C126.353 99.3667 127.778 99.0494 129.227 98.9137C130.681 98.7641 132.027 98.0815 133.007 96.9975C133.661 96.0503 133.947 94.8971 133.812 93.7541C133.676 92.6215 133.401 91.5101 132.992 90.4451L131.182 85.0175C131.054 84.6224 130.813 84.1508 130.405 84.1619C129.102 84.1962 130.097 86.6648 130.272 87.2532C130.711 88.9035 130.728 90.6375 130.321 92.296V92.296Z" fill="#E3A45A"/>
<path d="M32.5076 107.897C34.1658 107.882 35.9071 108.34 37.4301 107.713C38.5537 107.139 39.5032 106.274 40.1799 105.209C41.7786 103.085 43.2846 100.875 44.698 98.5797C43.1434 101.916 41.3389 105.131 39.2998 108.195C39.0301 108.688 38.633 109.099 38.15 109.386C37.7218 109.548 37.2653 109.621 36.8081 109.601L32.8393 109.631C32.5443 109.602 32.2476 109.666 31.9902 109.813C31.823 109.979 31.6968 110.182 31.6215 110.405C31.5462 110.629 31.524 110.866 31.5565 111.1C31.5622 113.037 31.6126 114.975 31.8105 116.908C30.971 116.522 30.2179 115.971 29.5965 115.287C28.9751 114.603 28.4981 113.801 28.1941 112.929C27.3058 110.276 30.0448 107.892 32.5076 107.897Z" fill="#E3A45A"/>
<path opacity="0.43" d="M28.6736 28.6873C27.6957 30.9266 27.9279 33.5109 27.2551 35.8681C26.3205 39.2557 23.5998 41.858 22.1435 45.0566C22.3811 45.2807 22.6802 45.4286 23.0024 45.4815C23.3247 45.5343 23.6553 45.4896 23.952 45.353C24.5398 45.0683 25.0455 44.6386 25.4216 44.1045C28.7941 39.7919 29.0095 33.5055 32.8042 29.5794C35.0198 27.299 38.1337 26.1666 40.7967 24.426C41.0988 24.2281 41.428 23.8914 41.2568 23.5741C41.1671 23.4477 41.0394 23.3534 40.8923 23.3048C40.2794 23.1061 39.6305 23.0436 38.9909 23.1217C38.3514 23.1999 37.7366 23.4167 37.1895 23.7571C36.3191 24.1576 35.3867 24.4064 34.4325 24.4929C33.1971 24.6507 32.0215 25.1179 31.0148 25.8511C30.0081 26.5843 29.2028 27.5599 28.6736 28.6873Z" fill="white"/>
<path opacity="0.43" d="M26.3507 60.394C24.217 60.3792 22.0704 59.922 19.9699 60.2764C18.6111 60.56 17.3227 61.112 16.1799 61.8999C15.0371 62.6878 14.063 63.6957 13.3147 64.8648C11.8213 67.2072 10.8287 69.8332 10.3992 72.5777C10.9109 72.7333 11.4564 72.7402 11.9719 72.5975C12.4874 72.4549 12.9516 72.1685 13.3105 71.7719C14.0111 70.9541 14.5835 70.0346 15.008 69.0449C15.7619 67.377 16.9995 65.974 18.5605 65.0181C19.3546 64.5376 20.2865 64.3361 21.2082 64.4457C22.1299 64.5552 22.9886 64.9695 23.648 65.6228C24.1419 66.1979 24.5096 66.9857 25.2415 67.1876C26.2139 67.4559 26.979 66.3955 27.5541 65.5753C28.6717 63.9398 30.1294 62.565 31.8276 61.545C33.0397 60.8218 34.5464 59.2347 32.2765 59.306C30.2939 59.3554 28.4577 60.424 26.3507 60.394Z" fill="white"/>
<path d="M60.319 31.1508C61.0281 32.9441 62.5701 34.2471 63.9369 35.6143C64.8948 36.3933 65.5315 37.4984 65.7247 38.7179C65.7964 40.5379 64.0705 41.9407 63.6277 43.7087C63.4477 44.414 63.4792 45.1566 63.7182 45.8441C63.9572 46.5316 64.3932 47.1336 64.9718 47.5751C65.5505 48.0166 66.2462 48.2781 66.9724 48.3271C67.6987 48.376 68.4232 48.2102 69.0559 47.8503C70.1573 47.0252 71.1143 46.0232 71.888 44.885C73.1119 43.5183 74.7116 42.5429 76.487 42.0808C77.8794 41.8604 79.258 41.5608 80.6163 41.1835C83.1285 40.2339 84.7185 37.8148 85.8406 35.379C85.987 35.1613 86.0757 34.9101 86.0986 34.6488C86.1215 34.3875 86.0778 34.1247 85.9715 33.8849C85.7407 33.6124 85.4124 33.4411 85.0568 33.4076C82.3881 32.8851 79.5362 34.4948 76.9934 33.557C76.1637 33.2305 75.4531 32.6592 74.9559 31.9191C74.4587 31.1791 74.1984 30.3052 74.2098 29.4137C74.2527 27.7491 75.2413 26.0416 74.5809 24.5205C74.2693 23.878 73.7678 23.3468 73.1442 22.999C71.8098 22.2564 70.2437 22.0468 68.761 22.4122C67.2783 22.7776 65.989 23.6909 65.1525 24.9684C64.7108 25.7129 64.3383 26.8591 63.4204 27.1684C62.5025 27.4777 62.0558 26.6906 61.4551 26.8287C59.8482 27.2292 59.8215 29.8547 60.319 31.1508Z" fill="#FEC554"/>
<path d="M125.729 58.0852C125.592 58.3557 125.516 58.6536 125.508 58.9571C125.501 59.2605 125.561 59.5619 125.684 59.8392C125.938 60.3873 126.223 60.9205 126.537 61.436C127.04 62.4077 127.279 63.4939 127.232 64.5868C127.22 64.8759 127.211 65.2336 127.457 65.4027C127.555 65.4555 127.664 65.4858 127.776 65.4912C127.887 65.4967 127.998 65.4771 128.101 65.434C128.937 65.1752 129.662 64.6445 130.162 63.9262C130.662 63.208 130.908 62.3434 130.86 61.4696C130.805 60.8989 130.664 60.34 130.44 59.8122C130.207 59.1495 129.826 58.5483 129.327 58.0539C128.574 57.4409 126.359 57.0663 125.729 58.0852Z" fill="#E3A45A"/>
<path d="M134.43 54.1173C133.587 54.0311 132.552 54.2744 132.299 55.0708C132.239 55.3507 132.26 55.6419 132.359 55.9103C132.458 56.1788 132.632 56.4135 132.86 56.5869C133.322 56.9267 133.849 57.1678 134.408 57.2954C135.15 57.5002 136.113 57.6419 136.518 56.9886C136.605 56.8177 136.655 56.6298 136.663 56.4379C136.672 56.246 136.638 56.0546 136.566 55.8767C136.374 55.3621 136.023 54.9219 135.565 54.6195C135.106 54.317 134.563 54.1681 134.015 54.194L134.43 54.1173Z" fill="#E3A45A"/>
<path d="M19.9037 87.3514C19.4051 87.9828 19.1581 88.7764 19.2104 89.5792C19.2414 89.9753 19.3973 90.3514 19.6558 90.6532C19.9142 90.955 20.2618 91.167 20.6485 91.2586C21.2378 91.3153 21.828 91.1588 22.3117 90.8173C23.3108 90.297 24.0683 89.4085 24.4241 88.3397C25.4207 84.8905 21.329 85.3256 19.9037 87.3514Z" fill="#E3A45A"/>
<path d="M18.3042 96.9012C17.7601 96.7577 17.191 96.7363 16.6376 96.8384C16.0842 96.9406 15.5603 97.1638 15.1033 97.492C14.9438 97.5907 14.8127 97.7289 14.7226 97.8933C14.6464 98.0941 14.6411 98.3149 14.7074 98.5192C14.8928 98.9714 15.1755 99.3773 15.5354 99.708C15.8953 100.039 16.3236 100.286 16.7898 100.433C17.1733 100.663 17.6054 100.8 18.0515 100.833C18.4976 100.867 18.9453 100.795 19.3586 100.624C19.7413 100.359 20.0097 99.9594 20.11 99.505C20.2103 99.0507 20.1351 98.5752 19.8995 98.1739C19.6626 97.7903 19.312 97.4901 18.8965 97.315C18.481 97.1399 18.0213 97.0986 17.5813 97.1968L18.3042 96.9012Z" fill="#E3A45A"/>
<path d="M51.7695 48.7633C53.0648 48.9709 54.3912 48.8575 55.6324 48.4329C56.8736 48.0083 57.9917 47.2855 58.8884 46.328C58.2466 48.1649 57.4559 50.1746 55.7105 51.0769C55.0566 51.3728 54.3588 51.5604 53.6446 51.6321C50.9514 52.0142 47.9719 52.0474 45.6818 50.5604C43.7897 49.2621 42.4288 46.8952 40.1462 46.4005C39.7562 46.3547 39.3754 46.2496 39.017 46.0889C38.8411 45.9997 38.7042 45.8488 38.6324 45.6651C38.5607 45.4813 38.5591 45.2776 38.628 45.0928C38.707 44.9838 38.8074 44.8922 38.9231 44.8235C39.0388 44.7548 39.1673 44.7105 39.3008 44.6933C43.4106 43.6219 47.6901 48.2567 51.7695 48.7633Z" fill="#E3A45A"/>
<path d="M134.986 71.6764C133.652 72.4335 132.677 73.5598 131.376 74.2808C128.58 75.8498 125.087 75.1337 122.032 74.1782C118.976 73.2228 115.745 72.0499 112.633 72.8455C116.738 73.1702 120.703 74.4842 124.19 76.675C125.113 77.4128 126.219 77.8853 127.39 78.0419C129.871 78.0625 131.836 74.9367 134.228 75.6077C135.116 75.9484 135.88 76.5515 136.417 77.3368L139.696 81.358C139.119 78.4311 141.058 68.2658 134.986 71.6764Z" fill="#E3A45A"/>
<path d="M31.6122 15.9967C25.5208 20.0093 19.8996 25.5806 18.6134 32.7304C18.0603 35.7956 18.3324 39.0098 17.4465 42.0171C16.3234 45.8027 13.4826 48.7994 11.2984 52.0673C4.97766 61.316 3.5003 72.9923 3.18207 84.1783C2.94249 93.2033 3.77187 103.288 10.4644 109.331C14.0697 112.576 18.774 114.122 22.7232 116.854C25.6034 119.052 28.3256 121.45 30.8698 124.029C49.4699 141.234 77.7806 147.098 101.703 138.812C104.526 137.973 107.15 136.569 109.413 134.683C111.815 132.499 113.288 129.485 115.362 126.986C120.256 121.113 128.051 118.47 133.653 113.254C137.504 109.656 140.173 104.974 141.306 99.8271C142.734 93.2675 141.631 86.4151 141.94 79.7495C142.563 68.5577 147.383 56.8807 142.98 46.575C140.767 41.464 136.549 37.4649 132.433 33.6629C122.159 24.1676 111.123 14.3723 97.4204 12.0433C91.186 10.9872 84.7356 11.5704 78.5196 10.4068C73.7259 9.51185 69.1702 7.59117 64.4187 6.58409C53.735 4.32294 40.435 10.2398 31.6122 15.9967Z" stroke="#673815" stroke-width="5"/>
<path d="M40.3176 49.9265C34.3493 50.1386 29.7406 56.7527 30.0224 64.6983C30.3042 72.644 35.3733 78.9102 41.3416 78.6981C47.3099 78.4859 51.9219 71.8751 51.6368 63.9295C51.3517 55.9839 46.286 49.7209 40.3176 49.9265ZM35.272 61.8262C32.3712 62.241 31.7332 57.7377 34.6308 57.3262C37.5284 56.9148 38.1729 61.4181 35.2721 61.8328L35.272 61.8262Z" fill="#5A3A1C"/>
<path d="M113.415 64.7983C114.068 57.4037 109.782 50.9852 103.843 50.4653C97.9048 49.9453 92.5629 55.5179 91.9135 62.9125C91.2642 70.3071 95.5502 76.7257 101.485 77.2489C107.421 77.7721 112.766 72.1962 113.415 64.7983ZM108.641 61.547C105.742 61.1444 106.371 56.6537 109.263 57.0531C112.155 57.4525 111.546 61.9463 108.641 61.547Z" fill="#5A3A1C"/>
<path d="M88.595 75.1948C87.4537 74.2214 84.8381 74.9915 83.4996 75.0623C80.3514 75.2299 77.203 75.3876 74.0538 75.4893C68.448 75.667 62.5609 76.5207 56.9999 75.8639C56.0516 75.7514 55.4403 76.4089 55.2332 77.206C55.1185 77.311 55.0099 77.4225 54.9078 77.54C54.6265 79.0227 54.5096 80.5318 54.5594 82.0401C54.8336 82.8109 54.8009 84.0572 54.8064 85.2007C54.9212 86.1286 55.069 87.0593 55.2332 87.9865C55.6308 89.2612 56.1812 90.4833 56.8723 91.6261C58.6722 94.5495 61.3868 96.7985 64.5955 98.0247C71.6612 100.665 83.5495 99.3549 88.0247 92.6273C90.3174 89.1885 91.3482 77.5373 88.595 75.1948Z" fill="#FF5A72"/>
<path d="M76.0868 87.307C69.2715 86.845 62.6181 88.1178 56.2318 90.3658C56.4387 90.7881 56.6424 91.2139 56.8886 91.6126C58.6821 94.5383 61.3908 96.7919 64.5955 98.0247C71.6612 100.665 83.5496 99.3548 88.0248 92.6272C88.4858 91.8689 88.8411 91.0514 89.0808 90.1972C84.9068 88.6292 80.5325 87.6563 76.0868 87.307V87.307Z" fill="#FF929D"/>
<path d="M82.8595 75.5455C79.222 74.909 78.2245 76.0397 74.5292 76.0103C70.4216 75.9766 68.0436 76.0185 63.9681 75.6812C61.7521 75.5001 61.0262 77.6982 62.9442 78.5293C67.9219 80.7035 78.0942 80.3326 82.7953 78.3775C83.9533 77.8939 84.202 75.778 82.8595 75.5455Z" fill="white"/>
<path d="M55.8751 77.3487C66.4104 77.4706 76.9445 77.019 87.4764 76.8871C88.0536 76.8793 88.6311 76.8946 89.208 76.8638C89.4785 76.8602 89.4464 76.9298 89.4092 76.8611C89.3415 76.7302 88.6822 76.2776 88.6274 76.3707C88.5725 76.4637 88.6766 77.0885 88.6823 77.2631C88.7711 80.1853 88.724 83.307 88.2251 86.1909C87.6374 89.5869 86.1633 92.8103 83.395 94.9832C80.1305 97.5451 75.6793 98.4586 71.5946 98.1775C66.8199 97.8495 61.7272 95.7099 59.1469 91.5095C56.3472 86.9331 56.5264 81.3806 56.7111 76.2301C56.7613 74.8056 54.5448 74.8388 54.4946 76.2599C54.3171 81.206 54.2372 86.3024 56.3411 90.8914C58.2788 95.1499 62.0083 97.9736 66.4087 99.4074C74.3114 101.984 84.7038 99.8203 88.7048 91.9258C90.3113 88.7303 90.6799 85.2384 90.8305 81.7164C90.9011 80.1038 90.988 78.4713 90.897 76.8576C90.8449 75.9255 90.762 74.9149 89.6933 74.6821C88.4327 74.409 86.889 74.6671 85.6159 74.6908C82.7859 74.7289 79.9563 74.7999 77.1298 74.8577C70.0423 75.0026 62.9489 75.2035 55.8616 75.1242C54.4362 75.1072 54.466 77.3182 55.8914 77.3353L55.8751 77.3487Z" fill="#5A3A1C"/>
</g>
<defs>
<clipPath id="clip0_2_723">
<rect width="150" height="150" fill="white"/>
</clipPath>
</defs>
</svg>
